<svg xmlns="http://www.w3.org/2000/svg" viewBox="0 0 512 512">
    <path d="M0 0 C7.189 5.751 9.139 14.049 11.382 22.619 C11.582 23.368 11.781 24.116 11.987 24.888 C12.648 27.37 13.302 29.853 13.957 32.336 C14.431 34.119 14.905 35.903 15.379 37.686 C16.394 41.504 17.406 45.323 18.416 49.142 C20.011 55.168 21.611 61.193 23.212 67.218 C23.481 68.232 23.751 69.245 24.028 70.289 C24.577 72.354 25.126 74.419 25.674 76.483 C26.509 79.625 27.343 82.767 28.177 85.908 C33.657 106.542 39.185 127.162 44.723 147.779 C46.117 152.967 47.51 158.154 48.903 163.342 C50.118 167.869 51.334 172.396 52.551 176.923 C52.909 178.256 53.266 179.589 53.622 180.923 C54.509 184.239 55.408 187.552 56.329 190.859 C56.514 191.53 56.698 192.201 56.888 192.892 C57.394 194.729 57.905 196.564 58.417 198.399 C59.931 204.984 60.473 211.084 57.5 217.25 C53.071 222.038 49.377 224.301 43.055 226.012 C42.706 226.108 42.706 226.108 40.941 226.594 C38.651 227.221 36.357 227.83 34.062 228.438 C32.461 228.87 30.86 229.304 29.258 229.738 C25.081 230.866 20.898 231.977 16.714 233.082 C14.219 233.742 11.724 234.407 9.23 235.073 C5.265 236.132 1.297 237.18 -2.673 238.219 C-4.167 238.611 -5.66 239.004 -7.153 239.399 C-23.777 243.788 -38.765 245.614 -54.812 237.75 C-58.931 235.118 -62.646 232.341 -65.551 228.379 C-67.533 225.772 -68.927 224.326 -71.812 222.75 C-74.509 223.026 -76.665 223.449 -79.238 224.181 C-79.979 224.374 -80.72 224.567 -81.483 224.766 C-83.931 225.408 -86.371 226.079 -88.812 226.75 C-90.495 227.195 -92.179 227.637 -93.863 228.077 C-98.434 229.278 -102.997 230.505 -107.558 231.742 C-110.577 232.56 -113.597 233.375 -116.618 234.189 C-121.935 235.623 -127.251 237.059 -132.566 238.497 C-141.099 240.805 -149.633 243.11 -158.168 245.411 C-161.129 246.211 -164.089 247.012 -167.05 247.814 C-168.874 248.307 -170.699 248.799 -172.523 249.292 C-173.334 249.512 -174.145 249.732 -174.98 249.959 C-175.365 250.063 -175.365 250.063 -177.314 250.587 C-177.969 250.765 -178.625 250.942 -179.3 251.125 C-183.12 252.075 -186.97 252.896 -190.812 253.75 C-190.812 269.59 -190.812 285.43 -190.812 301.75 C-189.163 302.08 -187.512 302.41 -185.812 302.75 C-172.494 309.974 -163.88 320.479 -159.125 334.824 C-155.616 348.007 -157.657 361.388 -164.188 373.25 C-165.812 376.75 -165.812 376.75 -165.27 378.973 C-163.247 382.828 -160.723 386.202 -158.125 389.688 C-153.114 396.516 -148.25 403.424 -143.5 410.438 C-138.237 418.202 -132.928 425.931 -127.562 433.625 C-121.791 441.905 -116.036 450.196 -110.336 458.526 C-109.199 460.185 -108.061 461.844 -106.922 463.501 C-104.862 466.499 -102.806 469.499 -100.75 472.5 C-100.094 473.454 -99.438 474.408 -98.761 475.391 C-98.455 475.839 -98.455 475.839 -96.902 478.109 C-96.354 478.908 -95.806 479.707 -95.242 480.53 C-91.355 486.567 -91.048 491.622 -91.812 498.75 C-94.089 503.653 -97.011 506.304 -101.812 508.75 C-107.096 510.181 -111.877 510.167 -116.914 507.938 C-123.322 503.929 -127.226 496.794 -131.258 490.605 C-134.609 485.498 -138.129 480.508 -141.625 475.5 C-146.207 468.93 -150.785 462.358 -155.312 455.75 C-159.783 449.229 -164.294 442.737 -168.812 436.25 C-184.404 413.863 -184.404 413.863 -189.812 405.75 C-189.818 406.847 -189.824 407.944 -189.83 409.075 C-189.888 419.433 -189.96 429.79 -190.048 440.148 C-190.093 445.472 -190.132 450.797 -190.159 456.122 C-190.185 461.263 -190.225 466.405 -190.276 471.547 C-190.292 473.505 -190.304 475.463 -190.31 477.422 C-190.32 480.172 -190.348 482.922 -190.38 485.672 C-190.379 486.475 -190.377 487.279 -190.376 488.107 C-190.471 493.851 -191.207 499.786 -195.158 504.28 C-199.22 507.851 -202.809 509.523 -208.125 510.125 C-213.995 509.528 -218.184 507.462 -222.25 503.188 C-225.216 498.561 -224.982 494.186 -225.018 488.872 C-225.028 487.965 -225.038 487.057 -225.048 486.122 C-225.079 483.119 -225.104 480.116 -225.129 477.113 C-225.149 475.032 -225.17 472.952 -225.192 470.871 C-225.247 465.392 -225.297 459.912 -225.345 454.433 C-225.395 448.842 -225.451 443.252 -225.506 437.662 C-225.613 426.691 -225.715 415.721 -225.812 404.75 C-226.558 405.835 -227.303 406.92 -228.072 408.038 C-229.065 409.483 -230.058 410.928 -231.051 412.373 C-231.54 413.086 -232.03 413.798 -232.534 414.532 C-236.604 420.454 -240.702 426.356 -244.812 432.25 C-249.331 438.737 -253.842 445.229 -258.312 451.75 C-263.468 459.27 -268.675 466.754 -273.893 474.231 C-276.955 478.623 -280.008 483.02 -283 487.461 C-295.362 505.8 -295.362 505.8 -301.688 509.375 C-307.62 510.087 -312.768 509.734 -318.188 507.125 C-322.057 503.624 -324.374 500.493 -325.195 495.355 C-325.634 485.847 -320.658 479.181 -315.25 471.75 C-314.17 470.243 -313.09 468.735 -312.012 467.227 C-311.742 466.85 -311.742 466.85 -310.376 464.946 C-308.065 461.7 -305.811 458.415 -303.562 455.125 C-299.011 448.478 -294.417 441.86 -289.812 435.25 C-284.869 428.152 -279.941 421.044 -275.051 413.909 C-270.168 406.794 -265.23 399.718 -260.293 392.641 C-259.015 390.807 -257.739 388.971 -256.465 387.134 C-255.466 385.693 -254.463 384.255 -253.453 382.823 C-250.812 379.017 -250.812 379.017 -250.812 376.375 C-251.651 374.174 -252.586 372.258 -253.688 370.188 C-259.658 358.595 -260.291 346.226 -256.855 333.805 C-251 316.655 -241.851 308.769 -225.812 300.75 C-225.482 288.21 -225.153 275.67 -224.812 262.75 C-226.957 263.41 -226.957 263.41 -237.812 266.75 C-240.415 267.498 -243.02 268.233 -245.631 268.948 C-245.97 269.041 -245.97 269.041 -247.682 269.512 C-249.863 270.11 -252.044 270.704 -254.227 271.297 C-254.605 271.4 -254.605 271.4 -256.523 271.921 C-260.522 273.007 -264.522 274.089 -268.523 275.169 C-271.805 276.056 -275.085 276.951 -278.362 277.852 C-282.362 278.952 -286.364 280.038 -290.37 281.114 C-291.881 281.523 -293.39 281.936 -294.898 282.354 C-315.257 287.986 -315.257 287.986 -323.25 284.062 C-328.651 279.188 -330.696 274.881 -332.5 268 C-334.717 259.845 -334.717 259.845 -335.812 258.75 C-338.257 259.29 -340.64 259.897 -343.051 260.564 C-343.43 260.667 -343.43 260.667 -345.347 261.184 C-347 261.632 -348.653 262.081 -350.304 262.533 C-352.922 263.249 -355.542 263.957 -358.162 264.663 C-365.615 266.671 -373.064 268.694 -380.511 270.723 C-385.062 271.962 -389.615 273.192 -394.17 274.415 C-395.903 274.883 -397.636 275.355 -399.367 275.83 C-401.798 276.498 -404.233 277.154 -406.668 277.806 C-407.377 278.004 -408.085 278.202 -408.815 278.406 C-414.734 279.97 -421.295 281.072 -427 278.25 C-435.777 273.066 -437.568 262.833 -440.02 253.609 C-440.393 252.237 -440.767 250.865 -441.142 249.492 C-441.921 246.627 -442.69 243.759 -443.453 240.889 C-444.423 237.242 -445.419 233.602 -446.422 229.964 C-447.199 227.133 -447.962 224.3 -448.72 221.464 C-449.081 220.122 -449.447 218.781 -449.817 217.442 C-455.398 197.168 -455.398 197.168 -451.25 188.75 C-445.347 181.484 -436.56 180.051 -427.875 177.781 C-426.508 177.416 -425.142 177.05 -423.775 176.684 C-420.186 175.723 -416.595 174.774 -413.002 173.828 C-409.394 172.875 -405.789 171.912 -402.184 170.949 C-395.638 169.203 -389.09 167.466 -382.539 165.74 C-379.906 165.04 -377.276 164.333 -374.648 163.614 C-373.965 163.428 -373.281 163.242 -372.577 163.05 C-370.67 162.531 -368.765 162.008 -366.859 161.485 C-363.812 160.75 -363.812 160.75 -360.812 160.75 C-361.185 159.555 -361.558 158.36 -361.941 157.129 C-362.42 155.524 -362.898 153.918 -363.375 152.312 C-363.622 151.529 -363.869 150.746 -364.123 149.939 C-365.926 143.768 -366.6 137.83 -363.951 131.784 C-357.937 122.032 -343.795 120.673 -333.516 117.988 C-331.766 117.525 -330.016 117.061 -328.266 116.597 C-324.506 115.6 -320.746 114.608 -316.984 113.62 C-310.983 112.043 -304.985 110.455 -298.988 108.866 C-296.924 108.319 -294.859 107.772 -292.795 107.225 C-291.762 106.951 -290.728 106.677 -289.664 106.395 C-286.482 105.552 -283.299 104.71 -280.116 103.868 C-265.4 99.974 -250.693 96.048 -235.992 92.098 C-235.489 91.962 -235.489 91.962 -232.942 91.278 C-222.987 88.605 -213.034 85.925 -203.087 83.223 C-198.323 81.929 -193.558 80.638 -188.793 79.348 C-187.878 79.1 -186.964 78.852 -186.022 78.597 C-174.893 75.588 -163.746 72.705 -152.532 70.033 C-148.212 68.998 -143.9 67.926 -139.587 66.863 C-136.372 66.092 -133.147 65.387 -129.917 64.685 C-119.455 62.217 -119.455 62.217 -115.812 59.75 C-112.977 55.154 -112.38 51.044 -111.812 45.75 C-107.955 34.811 -99.778 25.46 -89.625 19.938 C-80.08 15.676 -70.004 13.032 -59.932 10.321 C-57.552 9.68 -55.173 9.033 -52.794 8.386 C-43.677 5.907 -34.555 3.444 -25.426 1.008 C-25.028 0.901 -25.028 0.901 -23.017 0.362 C-15.021 -1.765 -7.895 -3.509 0 0 Z " fill="#9EACB9" transform="translate(452.8125,2.25)" />
    <path d="M0 0 C-0.33 56.76 -0.66 113.52 -1 172 C-4.3 172.99 -7.6 173.98 -11 175 C-12.348 175.415 -13.695 175.83 -15.084 176.258 C-30.7 181.057 -46.467 185.317 -62.239 189.57 C-65.473 190.443 -68.704 191.324 -71.934 192.212 C-75.896 193.301 -79.862 194.376 -83.83 195.442 C-85.321 195.845 -86.811 196.252 -88.299 196.665 C-108.446 202.236 -108.446 202.236 -116.438 198.312 C-121.839 193.438 -123.883 189.131 -125.688 182.25 C-127.905 174.095 -127.905 174.095 -129 173 C-131.444 173.54 -133.828 174.147 -136.239 174.814 C-136.617 174.917 -136.617 174.917 -138.535 175.434 C-140.188 175.882 -141.84 176.331 -143.492 176.783 C-146.109 177.499 -148.729 178.207 -151.349 178.913 C-158.802 180.921 -166.252 182.944 -173.699 184.973 C-178.25 186.212 -182.803 187.442 -187.358 188.665 C-189.091 189.133 -190.823 189.605 -192.554 190.08 C-194.986 190.748 -197.42 191.404 -199.856 192.056 C-200.564 192.254 -201.272 192.452 -202.002 192.656 C-207.922 194.22 -214.482 195.322 -220.188 192.5 C-228.965 187.316 -230.755 177.083 -233.207 167.859 C-233.58 166.487 -233.954 165.115 -234.329 163.742 C-235.108 160.877 -235.878 158.009 -236.64 155.139 C-237.611 151.492 -238.606 147.852 -239.609 144.214 C-240.387 141.383 -241.149 138.55 -241.908 135.714 C-242.269 134.372 -242.634 133.031 -243.004 131.692 C-248.586 111.418 -248.586 111.418 -244.438 103 C-238.534 95.734 -229.747 94.301 -221.062 92.031 C-219.696 91.666 -218.329 91.3 -216.963 90.934 C-213.374 89.973 -209.782 89.024 -206.189 88.078 C-202.581 87.125 -198.976 86.162 -195.371 85.199 C-188.825 83.453 -182.278 81.716 -175.727 79.99 C-173.093 79.29 -170.464 78.583 -167.836 77.864 C-167.152 77.678 -166.469 77.492 -165.764 77.3 C-163.858 76.781 -161.952 76.258 -160.047 75.735 C-157 75 -157 75 -154 75 C-154.373 73.805 -154.745 72.61 -155.129 71.379 C-155.608 69.774 -156.085 68.168 -156.562 66.562 C-156.809 65.779 -157.056 64.996 -157.311 64.189 C-159.114 58.018 -159.787 52.08 -157.139 46.034 C-151.035 36.138 -135.712 34.586 -125.262 31.852 C-123.396 31.357 -121.531 30.863 -119.666 30.367 C-114.698 29.049 -109.729 27.74 -104.759 26.433 C-99.639 25.086 -94.521 23.73 -89.402 22.375 C-87.358 21.834 -85.313 21.293 -83.269 20.752 C-82.261 20.485 -81.253 20.218 -80.215 19.943 C-77.173 19.138 -74.13 18.334 -71.087 17.53 C-59.563 14.485 -48.05 11.406 -36.551 8.27 C-35.306 7.931 -34.062 7.592 -32.779 7.243 C-28.264 6.013 -23.749 4.782 -19.238 3.538 C-16.296 2.726 -13.351 1.923 -10.406 1.121 C-9.565 0.886 -8.724 0.651 -7.857 0.408 C-2.227 -1.114 -2.227 -1.114 0 0 Z " fill="#B7C8D8" transform="translate(246,88)" />
    <path d="M0 0 C7.189 5.751 9.139 14.049 11.382 22.619 C11.482 22.993 11.482 22.993 11.987 24.888 C12.648 27.37 13.302 29.853 13.957 32.336 C14.431 34.119 14.905 35.903 15.379 37.686 C16.394 41.504 17.406 45.323 18.416 49.142 C20.011 55.168 21.611 61.193 23.212 67.218 C23.481 68.232 23.751 69.245 24.028 70.289 C24.577 72.354 25.126 74.419 25.674 76.483 C26.509 79.625 27.343 82.767 28.177 85.908 C33.657 106.542 39.185 127.162 44.723 147.779 C46.117 152.967 47.51 158.154 48.903 163.342 C50.118 167.869 51.334 172.396 52.551 176.923 C52.909 178.256 53.266 179.589 53.622 180.923 C54.509 184.239 55.408 187.552 56.329 190.859 C56.421 191.195 56.421 191.195 56.888 192.892 C57.394 194.729 57.905 196.564 58.417 198.399 C59.931 204.984 60.473 211.084 57.5 217.25 C53.071 222.038 49.377 224.301 43.055 226.012 C42.357 226.204 41.66 226.396 40.941 226.594 C38.651 227.221 36.357 227.83 34.062 228.438 C32.461 228.87 30.86 229.304 29.258 229.738 C25.081 230.866 20.898 231.977 16.714 233.082 C14.219 233.742 11.724 234.407 9.23 235.073 C5.265 236.132 1.297 237.18 -2.673 238.219 C-4.167 238.611 -5.66 239.004 -7.153 239.399 C-23.777 243.788 -38.765 245.614 -54.812 237.75 C-58.068 235.67 -60.937 233.325 -63.812 230.75 C-64.525 230.142 -65.238 229.533 -65.973 228.906 C-75.809 219.934 -78.428 207.152 -81.812 194.75 C-82.078 193.78 -82.344 192.811 -82.618 191.812 C-86.073 179.167 -89.405 166.492 -92.683 153.8 C-94.299 147.593 -96.061 141.448 -97.918 135.31 C-100.053 128.146 -101.798 120.888 -103.578 113.629 C-105.056 107.641 -106.648 101.714 -108.438 95.812 C-118.544 62.043 -118.544 62.043 -111.812 45.75 C-111.507 44.955 -111.201 44.159 -110.887 43.34 C-105.921 31.946 -97.252 23.343 -85.977 18.309 C-77.498 15.012 -68.706 12.682 -59.932 10.321 C-57.552 9.68 -55.173 9.033 -52.794 8.386 C-43.677 5.907 -34.555 3.444 -25.426 1.008 C-24.631 0.795 -23.836 0.581 -23.017 0.362 C-15.021 -1.765 -7.895 -3.509 0 0 Z " fill="#FEA733" transform="translate(452.8125,2.25)" />
    <path d="M0 0 C2.64 1.037 3.913 1.883 5.625 4.188 C13.546 13.568 26.312 19.039 38.402 20.238 C53.683 20.686 66.226 14.579 77.406 4.613 C79 3 79 3 81 0 C85.425 1.512 87.312 4.954 89.75 8.688 C90.723 10.14 91.697 11.592 92.672 13.043 C93.201 13.835 93.73 14.627 94.275 15.443 C97.461 20.167 100.737 24.829 104 29.5 C108.95 36.605 113.881 43.721 118.777 50.863 C122.825 56.761 126.912 62.63 131 68.5 C159.124 108.906 159.124 108.906 158 121 C155.723 125.903 152.802 128.554 148 131 C142.717 132.431 137.935 132.417 132.898 130.188 C126.491 126.179 122.587 119.044 118.555 112.855 C115.204 107.748 111.684 102.758 108.188 97.75 C103.605 91.18 99.028 84.608 94.5 78 C90.03 71.479 85.518 64.987 81 58.5 C65.409 36.113 65.409 36.113 60 28 C59.994 29.097 59.988 30.194 59.982 31.325 C59.925 41.683 59.852 52.04 59.764 62.398 C59.72 67.722 59.68 73.047 59.654 78.372 C59.627 83.513 59.587 88.655 59.537 93.797 C59.52 95.755 59.509 97.713 59.502 99.672 C59.493 102.422 59.465 105.172 59.432 107.922 C59.434 108.725 59.435 109.529 59.437 110.357 C59.342 116.101 58.606 122.036 54.655 126.53 C50.592 130.101 47.003 131.773 41.688 132.375 C35.817 131.778 31.629 129.712 27.562 125.438 C24.597 120.811 24.83 116.436 24.795 111.122 C24.785 110.215 24.775 109.307 24.765 108.372 C24.733 105.369 24.708 102.366 24.684 99.363 C24.663 97.282 24.642 95.202 24.621 93.121 C24.565 87.642 24.516 82.162 24.468 76.683 C24.418 71.092 24.362 65.502 24.307 59.912 C24.199 48.941 24.098 37.971 24 27 C23.627 27.543 23.627 27.543 21.741 30.288 C20.748 31.733 19.755 33.178 18.762 34.623 C18.272 35.336 17.783 36.048 17.278 36.782 C13.208 42.704 9.11 48.606 5 54.5 C0.481 60.987 -4.03 67.479 -8.5 74 C-13.655 81.52 -18.863 89.004 -24.08 96.481 C-27.142 100.873 -30.195 105.27 -33.188 109.711 C-45.549 128.05 -45.549 128.05 -51.875 131.625 C-57.807 132.337 -62.956 131.984 -68.375 129.375 C-72.245 125.874 -74.561 122.743 -75.383 117.605 C-75.821 108.097 -70.845 101.431 -65.438 94 C-64.357 92.493 -63.278 90.985 -62.199 89.477 C-61.66 88.724 -61.12 87.972 -60.564 87.196 C-58.252 83.95 -55.998 80.665 -53.75 77.375 C-49.199 70.728 -44.605 64.11 -40 57.5 C-35.481 51.013 -30.97 44.521 -26.5 38 C-21.901 31.294 -17.267 24.613 -12.625 17.938 C-11.946 16.961 -11.268 15.985 -10.568 14.979 C-7.077 9.962 -3.566 4.963 0 0 Z " fill="#4F5D6C" transform="translate(203,380)" />
    <path d="M0 0 C7.813 27.965 7.813 27.965 10.625 39.5 C12.243 46.133 14.028 52.695 15.938 59.25 C18.228 67.156 20.391 75.089 22.438 83.062 C22.709 84.092 22.98 85.122 23.26 86.183 C23.381 86.664 23.381 86.664 23.996 89.098 C24.215 89.949 24.433 90.799 24.658 91.676 C25.022 94.146 24.667 95.628 24 98 C13.841 100.75 3.679 103.489 -6.486 106.214 C-11.207 107.48 -15.927 108.75 -20.644 110.028 C-25.2 111.262 -29.758 112.486 -34.319 113.704 C-36.055 114.17 -37.79 114.638 -39.524 115.111 C-41.96 115.774 -44.399 116.425 -46.84 117.072 C-47.195 117.17 -47.195 117.17 -48.991 117.667 C-54.915 119.216 -61.483 120.322 -67.188 117.5 C-75.965 112.316 -77.755 102.083 -80.207 92.859 C-80.58 91.487 -80.954 90.115 -81.329 88.742 C-82.108 85.877 -82.878 83.009 -83.64 80.139 C-84.611 76.492 -85.606 72.852 -86.609 69.214 C-87.387 66.383 -88.149 63.55 -88.908 60.714 C-89.269 59.372 -89.634 58.031 -90.004 56.692 C-95.586 36.418 -95.586 36.418 -91.438 28 C-85.534 20.734 -76.747 19.301 -68.062 17.031 C-66.696 16.666 -65.329 16.3 -63.963 15.934 C-60.374 14.973 -56.782 14.024 -53.189 13.078 C-49.581 12.125 -45.976 11.162 -42.371 10.199 C-35.824 8.453 -29.275 6.714 -22.723 4.99 C-20.102 4.293 -17.485 3.585 -14.871 2.864 C-14.192 2.678 -13.513 2.492 -12.813 2.3 C-10.923 1.782 -9.033 1.259 -7.145 0.735 C-4 0 -4 0 0 0 Z " fill="#FEC477" transform="translate(93,163)" />
    <path d="M0 0 C0 15.84 0 31.68 0 48 C1.65 48.33 3.3 48.66 5 49 C18.318 56.224 26.933 66.729 31.688 81.074 C35.267 94.524 32.927 107.814 26.562 120 C24.439 123.538 22.109 126.253 19 129 C18.707 129.277 18.707 129.277 17.223 130.68 C7.583 139.575 -4.23 144.932 -17.5 145.5 C-33.869 144.777 -46.688 136.699 -57.688 125.188 C-65.365 114.606 -69.326 102.099 -68 89 C-65.849 75.539 -59.988 63.413 -49.25 54.875 C-45 52 -45 52 -35 47 C-34.67 34.13 -34.34 21.26 -34 8 C-31.814 7.433 -31.814 7.433 -20.75 4.562 C-19.377 4.206 -18.004 3.85 -16.589 3.483 C-15.503 3.201 -14.416 2.919 -13.297 2.629 C-12.187 2.341 -11.076 2.053 -9.933 1.756 C-8.965 1.507 -7.997 1.257 -7 1 C-6.272 0.801 -5.544 0.603 -4.794 0.398 C-3 0 -3 0 0 0 Z " fill="#9DABB9" transform="translate(262,256)" />
    <path d="M0 0 C0 10.89 0 21.78 0 33 C-2.97 33.99 -5.94 34.98 -9 36 C-13.707 39.906 -15.769 42.695 -16.375 48.75 C-16.226 53.457 -14.853 57.246 -12 61 C-8.417 63.87 -4.241 65.304 0 67 C0 77.56 0 88.12 0 99 C-14.538 99 -24.012 95.466 -35 86 C-36.864 84.075 -38.394 82.158 -40 80 C-40.485 79.541 -40.969 79.082 -41.469 78.609 C-48.416 71.307 -51.052 59.264 -51.375 49.5 C-50.918 36.233 -45.821 22.205 -36 13 C-25.119 3.485 -14.424 0 0 0 Z " fill="#B7C8D8" transform="translate(245,301)" />
    <path d="M0 0 C0 15.51 0 31.02 0 47 C-1.155 46.835 -1.155 46.835 -7 46 C-8.687 45.917 -10.377 45.87 -12.066 45.867 C-12.964 45.866 -13.862 45.865 -14.787 45.863 C-15.703 45.867 -16.619 45.871 -17.562 45.875 C-18.482 45.871 -19.402 45.867 -20.35 45.863 C-20.798 45.864 -20.798 45.864 -23.066 45.867 C-23.87 45.868 -24.674 45.869 -25.502 45.871 C-28.356 46.018 -31.181 46.53 -34 47 C-34 34.13 -34 21.26 -34 8 C-29.627 6.866 -25.255 5.731 -20.75 4.562 C-19.377 4.206 -18.004 3.85 -16.589 3.483 C-15.503 3.201 -14.416 2.919 -13.297 2.629 C-12.187 2.341 -11.076 2.053 -9.933 1.756 C-9.449 1.631 -9.449 1.631 -7 1 C-6.636 0.901 -6.636 0.901 -4.794 0.398 C-3 0 -3 0 0 0 Z " fill="#4F5D6C" transform="translate(262,256)" />
    <path d="M0 0 C3.831 2.612 6.652 5.678 8.75 9.875 C9.274 15.131 9.415 19.52 7.062 24.312 C3.881 27.838 0.546 31.511 -4.352 32.148 C-9.988 32.375 -13.918 31.82 -18.555 28.488 C-22.485 24.748 -24.4 20.261 -24.812 14.875 C-24.528 10.05 -22.385 6.463 -19.25 2.875 C-13.585 -2.129 -6.947 -2.405 0 0 Z " fill="#505E6D" transform="translate(252.25,335.125)" />
  </svg>
